<svg width="22" height="42" viewBox="0 0 22 42" fill="none" xmlns="http://www.w3.org/2000/svg">
<path d="M7.7903 26.483V19.923H8.9703L13.0303 25.143V19.923H14.2103V26.483H15.1803V26.913H12.9303L8.9703 21.813V26.913H6.8203V26.483H7.7903Z" fill="#FF00B8"/>
<path d="M11.7143 1H13.8571H15.7143C16.2666 1 16.7143 1.44772 16.7143 2V5.70588V9.41176C16.7143 9.96405 17.162 10.4118 17.7143 10.4118H20C20.5523 10.4118 21 10.8595 21 11.4118V40C21 40.5523 20.5523 41 20 41H11" stroke="#FF00B8"/>
<path d="M10.2857 1H8.14286H6.28572C5.73343 1 5.28571 1.44772 5.28571 2V5.70588V9.41176C5.28571 9.96405 4.838 10.4118 4.28571 10.4118H2C1.44771 10.4118 1 10.8595 1 11.4118V40C1 40.5523 1.44772 41 2 41H11" stroke="#FF00B8"/>
</svg>
